<svg xmlns="http://www.w3.org/2000/svg" xmlns:xlink="http://www.w3.org/1999/xlink"><symbol viewBox="0 0 24 24" id="ban" xmlns="http://www.w3.org/2000/svg"><path fill-rule="evenodd" d="M12 0c6.6 0 12 5.4 12 12s-5.4 12-12 12S0 18.6 0 12 5.4 0 12 0zM3 12c0 1.95.6 3.75 1.65 5.2L17.2 4.65C15.75 3.6 13.95 3 12 3c-4.95 0-9 4.05-9 9zm9 9c4.95 0 9-4.05 9-9 0-1.95-.6-3.75-1.65-5.2L6.8 19.35C8.25 20.4 10.05 21 12 21z"/></symbol><symbol viewBox="0 0 24 24" id="box" xmlns="http://www.w3.org/2000/svg"><path fill-rule="evenodd" d="M0 18V6l12-6 12 6v12l-12 6-12-6m13.126-6.562l8.625-4.312v9.748l-8.624 4.31V11.44m-3.752-3l7.5-3.75L19.5 6 12 9.75 9.374 8.44M4.5 6.002l7.5-3.75 2.626 1.312-7.5 3.75L4.5 6.003m6.374 15.188v-9.752L7.5 9.75v3.752l-1.5-.75V9L2.25 7.126v9.75l8.624 4.314m-6.748-5.626L9 18.002v-1.5l-4.874-2.438v1.5"/></symbol><symbol viewBox="0 0 24 24" id="bulb" xmlns="http://www.w3.org/2000/svg"><path d="M20.5 8.4c0 2.603-1.198 4.928-3.08 6.47l.003-.002-.004.002c-.106.087-.22.165-.33.246-.515.424-1.447 1.397-1.447 2.92v-.043c0 .666-.547 1.207-1.222 1.207H9.58c-.676 0-1.223-.54-1.223-1.207v.044c0-1.524-.932-2.497-1.446-2.92-.11-.082-.224-.16-.33-.247l-.003-.002h.002A8.332 8.332 0 0 1 3.5 8.4C3.5 3.76 7.306 0 12 0s8.5 3.76 8.5 8.4zm-8.495-5.6c3.13 0 5.666 2.507 5.666 5.6 0 .22.183.4.406.4.224 0 .405-.18.405-.4 0-3.535-2.9-6.4-6.475-6.4a.403.403 0 0 0-.405.4c0 .22.18.4.405.4zM8.36 20.3h7.286v1.713c0 .462-.257.884-.663 1.09L13.217 24H10.79l-1.76-.893c-.41-.21-.67-.635-.67-1.103V20.3z"/></symbol><symbol viewBox="0 0 24 24" id="cart" xmlns="http://www.w3.org/2000/svg"><path d="M7.2 19.2a2.397 2.397 0 0 0-2.388 2.4c0 1.32 1.068 2.4 2.388 2.4 1.32 0 2.4-1.08 2.4-2.4 0-1.32-1.08-2.4-2.4-2.4zM0 0v2.4h2.4l4.32 9.108-1.62 2.94a2.32 2.32 0 0 0-.3 1.152c0 1.32 1.08 2.4 2.4 2.4h14.4v-2.4H7.704a.297.297 0 0 1-.3-.3l.036-.144L8.52 13.2h8.94c.9 0 1.692-.492 2.1-1.236l4.296-7.788A1.204 1.204 0 0 0 22.8 2.4H5.052L3.924 0H0zm19.2 19.2a2.397 2.397 0 0 0-2.388 2.4c0 1.32 1.068 2.4 2.388 2.4 1.32 0 2.4-1.08 2.4-2.4 0-1.32-1.08-2.4-2.4-2.4z"/></symbol><symbol viewBox="0 0 52 52" id="check" xmlns="http://www.w3.org/2000/svg"><path d="M19.1 42.5L2.6 25.9c-.6-.6-.6-1.6 0-2.2l2.2-2.2c.6-.6 1.6-.6 2.2 0L19.4 34c.4.4 1.1.4 1.5 0L45.2 9.5c.6-.6 1.6-.6 2.2 0l2.2 2.2c.6.6.6 1.6 0 2.2L21.3 42.5c-.6.7-1.6.7-2.2 0z"/></symbol><symbol viewBox="0 0 24 24" id="chevrondown" xmlns="http://www.w3.org/2000/svg"><path d="M0 8l3-3 9 9 9-9 3 3-12 12"/></symbol><symbol viewBox="0 0 24 24" id="chevronleft" xmlns="http://www.w3.org/2000/svg"><path d="M16 0l3 3-9 9 9 9-3 3L4 12"/></symbol><symbol viewBox="0 0 24 24" id="chevronright" xmlns="http://www.w3.org/2000/svg"><path d="M8 24l-3-3 9-9-9-9 3-3 12 12"/></symbol><symbol viewBox="0 0 24 24" id="chevronup" xmlns="http://www.w3.org/2000/svg"><path d="M24 16l-3 3-9-9-9 9-3-3L12 4"/></symbol><symbol viewBox="0 0 24 24" id="clear" xmlns="http://www.w3.org/2000/svg"><path d="M12 0c6.65 0 12 5.35 12 12s-5.35 12-12 12S0 18.65 0 12 5.35 0 12 0zm2 12l4-4-2-2-4 4-4-4-2 2 4 4-4 4 2 2 4-4 4 4 2-2-4-4z"/></symbol><symbol viewBox="0 0 24 24" id="clock" xmlns="http://www.w3.org/2000/svg"><path fill-rule="evenodd" d="M13.135 4.478A1.12 1.12 0 0 0 12.01 3.36a1.12 1.12 0 0 0-1.126 1.118v7.515c0 .62.504 1.118 1.126 1.118.266 0 .51-.09.703-.244l4.853-3.398a1.126 1.126 0 1 0-1.292-1.843l-3.14 2.2V4.48zM12 24C5.333 24 0 18.582 0 11.966 0 5.35 5.333 0 12 0c6.667-.07 12 5.35 12 11.966C24 18.65 18.595 24 12 24zm9-11.97C21 7.04 16.973 3 12 3s-8.938 3.977-9 8.967C3 16.957 6.965 21 11.938 21c5.035.062 9.06-3.98 9.06-8.97H21z"/></symbol><symbol viewBox="0 0 24 24" id="close" xmlns="http://www.w3.org/2000/svg"><path fill-rule="evenodd" d="M15 12l7-7-3-3-7 7-7-7-3 3 7 7-7 7 3 3 7-7 7 7 3-3"/></symbol><symbol viewBox="0 0 24 24" id="couch" xmlns="http://www.w3.org/2000/svg"><path fill-rule="evenodd" d="M.5 11h2a.5.5 0 0 1 .5.5v6.502H0V11.5a.5.5 0 0 1 .5-.5zm21 0h2a.5.5 0 0 1 .5.5V18h-3v-6.5a.5.5 0 0 1 .5-.5zM4 13h16a.5.5 0 0 1 .5.5V18h-17v-4.5A.5.5 0 0 1 4 13zm8.25-.5V6H21c.5 0 1 .5 1 1v3.5h-1a.5.5 0 0 0-.5.5v1.5h-8.25zm-.5 0H3.5V11a.5.5 0 0 0-.5-.5H2V7c0-.5.5-1 1-1h8.75v6.5z"/></symbol><symbol viewBox="0 0 24 24" id="creditcard" xmlns="http://www.w3.org/2000/svg"><path d="M21.778 4C23.005 4 24 4.995 24 6.222v1.946H0V6.222C0 4.995.995 4 2.222 4h19.556zM0 17.27v-6.742h24v6.742a2.222 2.222 0 0 1-2.222 2.222H2.222A2.222 2.222 0 0 1 0 17.27zm17.218-2.91v1.3c0 .75.607 1.356 1.357 1.356h1.298c.75 0 1.357-.607 1.357-1.357v-1.3c0-.75-.607-1.358-1.357-1.358h-1.298c-.75 0-1.357.608-1.357 1.357zM3.23 15.57v.912a.3.3 0 0 0 .3.3h4.625a.3.3 0 0 0 .3-.3v-.913c0-.168-.134-.3-.3-.3H3.53c-.166 0-.3.132-.3.3z"/></symbol><symbol viewBox="0 0 24 24" id="drill" xmlns="http://www.w3.org/2000/svg"><path fill-rule="evenodd" d="M1 17h7a1 1 0 0 1 1 1v4a1 1 0 0 1-1 1H1a1 1 0 0 1-1-1v-4a1 1 0 0 1 1-1zm2-6h5l-2 6H1l2-6zM1 1h11a1 1 0 0 1 1 1v8a1 1 0 0 1-1 1H1a1 1 0 0 1-1-1V2a1 1 0 0 1 1-1zm15 3.997h8v2h-8v2a1 1 0 0 1-1 1h-1v-8h1a1 1 0 0 1 1 1v2zm-10-2v1h5v-1H6zm0 2v1h5v-1H6zm0 2v1h5v-1H6z"/></symbol><symbol viewBox="0 0 24 24" id="envelope" xmlns="http://www.w3.org/2000/svg"><path fill-rule="evenodd" d="M0 5.96l12 8.02 12-8.02V20.8c0 .662-.534 1.2-1.192 1.2H1.192A1.197 1.197 0 0 1 0 20.8V5.96zM0 3h24v1.34l-12 7.57L0 3.89V3z"/></symbol><symbol viewBox="0 0 20 20" id="equal" xmlns="http://www.w3.org/2000/svg"><title>Equal icon</title><g transform="translate(0 4)"><path d="M0 3.429h20V0H0zM0 12h20V8.571H0z"/></g></symbol><symbol viewBox="0 0 24 24" id="error" xmlns="http://www.w3.org/2000/svg"><path d="M12 0c6.6 0 12 5.4 12 12s-5.4 12-12 12S0 18.6 0 12 5.4 0 12 0zM5 10a1 1 0 0 0-1 1v2a1 1 0 0 0 1 1h14a1 1 0 0 0 1-1v-2a1 1 0 0 0-1-1H5z"/></symbol><symbol viewBox="0 0 52 52" id="file" xmlns="http://www.w3.org/2000/svg"><path d="M9.7 36.1V11.3c-2.6 0-4.7 2.1-4.7 4.6v29.4C5 47.9 7.1 50 9.7 50H33c2.6 0 4.7-2.1 4.7-4.6H19c-5.1 0-9.3 0-9.3-9.3zm35.7-20.2h-7.8c-2.6 0-4.7-2.1-4.7-4.6V3.5c.1-.8-.6-1.5-1.5-1.5H19c-2.6 0-4.7 2.1-4.7 4.6V36c0 2.6 2.1 4.6 4.7 4.6h23.3c2.6 0 4.7-2.1 4.7-4.6V17.5c0-.9-.7-1.6-1.6-1.6zm1.3-6.5l-7.2-7.1c-.2-.2-.4-.3-.7-.3-.6 0-1.1.5-1.1 1.1v5.1c0 1.7 1.4 3.1 3.1 3.1h5.1c.6 0 1.1-.5 1.1-1.1 0-.3-.1-.5-.3-.8z"/></symbol><symbol viewBox="0 0 24 24" id="flag" xmlns="http://www.w3.org/2000/svg"><path fill="#C90018" fill-rule="evenodd" d="M14.207 14.238l.21.547-2.104-.175a.193.193 0 0 0-.21.197L12.167 17h-.414l.066-2.193a.196.196 0 0 0-.21-.197l-2.105.175.21-.547a.576.576 0 0 0-.263-.712L7 12.156l.563-.276a.403.403 0 0 0 .225-.414l-.183-1.342 1.038.294a.415.415 0 0 0 .52-.3l.1-.44.974 1.116c.135.154.392.036.357-.165l-.416-2.368.638.17a.42.42 0 0 0 .473-.2L11.96 7l.673 1.233a.42.42 0 0 0 .474.2l.638-.17-.417 2.366c-.034.2.222.317.358.163l.976-1.116.1.44c.05.227.29.366.518.3l1.04-.294-.185 1.342a.402.402 0 0 0 .225.414l.563.275-2.453 1.37a.578.578 0 0 0-.263.712zM0 21h6V3H0v18zm18 0h6.003V3H18v18z"/></symbol><symbol viewBox="0 0 24 24" id="flyer" xmlns="http://www.w3.org/2000/svg"><path fill-rule="evenodd" d="M1 0h22a1 1 0 0 1 1 1v22a1 1 0 0 1-1 1H1a1 1 0 0 1-1-1V1a1 1 0 0 1 1-1zm2 3v5h18V3H3zm0 8v10h8V11H3zm10 0v1h8v-1h-8zm0 4v1h8v-1h-8zm0 4v1h4v-1h-4z"/></symbol><symbol viewBox="0 0 24 24" id="hamburger" xmlns="http://www.w3.org/2000/svg"><path fill-rule="evenodd" d="M2 0h20c1 0 2 1 2 2s-1 2-2 2H2C1 4 0 2.984 0 1.992S1 0 2 0zm0 10h20c1 0 2 1 2 2s-1 2-2 2H2c-1 0-2-1-2-2s1-2 2-2zm0 10h20c1 0 2 1 2 2s-1 2-2 2H2c-1 0-2-1-2-2s1-2 2-2z"/></symbol><symbol viewBox="0 0 24 24" id="hardhat" xmlns="http://www.w3.org/2000/svg"><path d="M11.954 23.6c-2.67.803-6.24.364-8.793-1.006-1.558-.836-2.736-2.02-3.094-3.48-.207-.84.09-1.776.663-2.753.326-.558.76-1.13 1.225-1.708-.003-.16-.018-.302-.018-.473 0-6.613 2.244-10.753 5.677-12.352-3.224 4.625-3.142 11.15-3.134 11.52.007.32.287.577.626.577.358-.007.632-.276.626-.6-.002-.1-.104-8.512 4.518-12.624.4-.224.918-.47 1.513-.623.977-.252 2.725.177 3.753.398-6.052 4.406-5.076 14.48-5.027 14.94.032.303.304.53.622.53.407-.035.657-.324.623-.647-.01-.104-.918-9.552 4.31-13.696.102.02.21.028.314.027.37-.008 1.298.25 2.02.565.023.01.367.17.49.24.017.01.32.21.45.303.023.016.318.246.438.353l.09.08c.07.065.35.334.35.334 1.6 1.71 2.772 4.217 2.82 5.766.91.745 1.197 1.218.82 2.092-1.192 2.778-8.65 11.262-11.884 12.237z"/></symbol><symbol viewBox="0 0 24 24" id="hide" xmlns="http://www.w3.org/2000/svg"><path fill-rule="evenodd" d="M15.14 4.407L17 1h2l-2.168 3.974c3.04 1.252 5.62 3.625 7.064 6.602.14.283.14.565 0 .848C21.73 16.894 17 20 12 20c-1.067 0-2.12-.14-3.14-.407L7 23H5l2.168-3.974c-3.04-1.252-5.62-3.625-7.064-6.602-.14-.236-.14-.565 0-.848C2.27 7.106 7 4 12 4c1.067 0 2.12.14 3.14.407zm-4.727 12.336A5.002 5.002 0 0 0 17 12c0-1.578-.73-2.985-1.872-3.9l-.984 1.8a3 3 0 0 1-2.747 5.038l-.984 1.803zm-1.54-.842l.983-1.8a3 3 0 0 1 2.747-5.041l.984-1.803A5.002 5.002 0 0 0 7 12c0 1.578.73 2.985 1.872 3.9z"/></symbol><symbol viewBox="0 0 24 24" id="info" xmlns="http://www.w3.org/2000/svg"><path fill-rule="evenodd" d="M12 0c6.65 0 12 5.35 12 12s-5.35 12-12 12S0 18.65 0 12 5.35 0 12 0zm0 6.05c-.85 0-1.5.65-1.5 1.5s.65 1.5 1.5 1.5 1.5-.65 1.5-1.5-.65-1.5-1.5-1.5zm2.5 10.5v-1c0-.3-.25-.55-.5-.55-.3 0-.5-.2-.5-.45v-4c0-.3-.25-.55-.5-.55h-3c-.3 0-.5.3-.5.55v1c0 .3.25.45.5.45.3 0 .5.3.5.55v2c0 .3-.25.45-.5.45-.3 0-.5.3-.5.55v1c0 .3.25.45.5.45h4c.3 0 .5-.2.5-.45z"/></symbol><symbol viewBox="0 0 24 24" id="minus" xmlns="http://www.w3.org/2000/svg"><path fill-rule="evenodd" d="M0 10v4h24v-4"/></symbol><symbol viewBox="0 0 24 8" id="paypal" xmlns="http://www.w3.org/2000/svg"><g fill="none"><path fill="#283B82" d="M13.22 2.727c.127 0 .2.14.13.244l-2.99 4.32a.254.254 0 0 1-.212.11H9.25c-.126 0-.2-.14-.126-.242l.93-1.313-.99-2.904a.156.156 0 0 1 .148-.206h.883c.114 0 .216.075.25.185l.524 1.753 1.23-1.826a.26.26 0 0 1 .214-.112h.9zm-4.76 0c.096 0 .168.085.153.18l-.483 3.06a.26.26 0 0 1-.256.218H7.07a.156.156 0 0 1-.155-.18l.04-.248s-.44.51-1.237.51c-.464 0-.854-.132-1.126-.453-.297-.35-.42-.85-.333-1.374.16-1.05 1-1.797 1.99-1.797.43 0 .86.094 1.052.374l.062.09.04-.25a.152.152 0 0 1 .152-.13h.893zm-1.246 1.74c.04-.248-.015-.472-.15-.633-.137-.16-.344-.243-.597-.243-.51 0-.922.36-1.002.86-.042.25.008.48.14.63.133.16.34.24.6.24a.996.996 0 0 0 1.01-.85zM2.88 1c.625 0 1.095.165 1.36.477.242.284.322.69.24 1.205-.187 1.18-.896 1.774-2.126 1.774h-.59a.26.26 0 0 0-.257.22l-.204 1.29a.26.26 0 0 1-.256.22h-.89a.156.156 0 0 1-.155-.18L.757 1.22A.26.26 0 0 1 1.013 1H2.88zm.215 1.748c.038-.235.008-.405-.09-.52-.165-.192-.483-.192-.82-.192h-.13a.155.155 0 0 0-.152.13L1.705 3.42h.282c.494 0 1.006 0 1.108-.67z"/><path fill="#469BDB" d="M22.514 1.132l-.767 4.874c-.015.094.06.18.154.18h.77c.13 0 .24-.093.26-.22l.76-4.786a.156.156 0 0 0-.152-.18h-.862a.155.155 0 0 0-.152.132zM21.46 2.727h-.894a.155.155 0 0 0-.153.13l-.04.25-.062-.09c-.19-.28-.62-.374-1.05-.374-.99 0-1.83.748-1.992 1.798-.085.53.036 1.03.333 1.38.273.32.66.457 1.126.457.796 0 1.238-.512 1.238-.512l-.04.25c-.014.094.06.18.155.18h.805a.26.26 0 0 0 .257-.22l.486-3.06a.155.155 0 0 0-.153-.18zm-1.246 1.74a.997.997 0 0 1-1.01.853c-.258 0-.466-.083-.6-.24-.13-.157-.18-.38-.14-.63.082-.505.493-.86 1.002-.86.254 0 .46.085.597.244.136.16.19.385.15.633zM15.88 1h-1.867a.26.26 0 0 0-.256.22l-.755 4.786a.156.156 0 0 0 .153.18h.958c.09 0 .166-.065.18-.154l.214-1.357a.26.26 0 0 1 .256-.22h.59c1.23 0 1.94-.594 2.125-1.773.084-.516.004-.92-.238-1.205-.265-.312-.735-.477-1.36-.477zm.215 1.75c-.1.668-.613.668-1.108.668h-.282l.198-1.25a.156.156 0 0 1 .153-.132h.13c.336 0 .655 0 .82.192.097.115.127.285.09.52z"/></g></symbol><symbol viewBox="0 0 24 24" id="pin" xmlns="http://www.w3.org/2000/svg"><path d="M12 1C7.577 1 4 4.6 4 9.05 4 15.087 12 24 12 24s8-8.912 8-14.95C20 4.6 16.423 1 12 1zm0 11a3.001 3.001 0 0 1 0-6 3.001 3.001 0 0 1 0 6z"/></symbol><symbol viewBox="0 0 16 23" id="pin-solid" xmlns="http://www.w3.org/2000/svg"><path d="M8 0C3.577 0 0 3.6 0 8.05 0 14.087 8 23 8 23s8-8.912 8-14.95C16 3.6 12.423 0 8 0z"/></symbol><symbol viewBox="0 0 24 24" id="play" xmlns="http://www.w3.org/2000/svg"><path fill-rule="evenodd" d="M12 24C5.373 24 0 18.627 0 12S5.373 0 12 0s12 5.373 12 12-5.373 12-12 12zm0-2c5.523 0 10-4.477 10-10S17.523 2 12 2 2 6.477 2 12s4.477 10 10 10zm4-10l-6 5V7l6 5z"/></symbol><symbol viewBox="0 0 24 24" id="plus" xmlns="http://www.w3.org/2000/svg"><path fill-rule="evenodd" d="M14 10V0h-4v10H0v4h10v10h4V14h10v-4"/></symbol><symbol viewBox="0 0 16 16" id="questionMarkCircle" xmlns="http://www.w3.org/2000/svg"><path d="M8 0c4.4 0 8 3.6 8 8s-3.6 8-8 8-8-3.6-8-8 3.6-8 8-8zm.403 10.323c.16 0 .319-.12.319-.297v-.297c0-.179.119-.317.298-.396a3.172 3.172 0 0 0 2.088-3.109c-.06-1.643-1.412-2.99-3.063-3.049a3.266 3.266 0 0 0-2.327.891 3.222 3.222 0 0 0-.954 1.96c-.02.179.12.317.298.317h.995c.159 0 .278-.099.298-.218.04-.336.199-.633.457-.87a1.606 1.606 0 0 1 1.174-.436c1.193.04 2.108 1.465 1.113 2.653a1.483 1.483 0 0 1-.636.415 1.983 1.983 0 0 0-1.332 1.861v.297c0 .159.119.278.278.278h.994zm.319 2.078v-.99a.305.305 0 0 0-.299-.296H7.43a.305.305 0 0 0-.298.297v.99c0 .158.139.296.298.296h.994c.16 0 .299-.138.299-.297z" fill-rule="evenodd"/></symbol><symbol viewBox="0 0 24 24" id="reveal" xmlns="http://www.w3.org/2000/svg"><path fill-rule="evenodd" d="M12 4c5 0 9.73 3.106 11.896 7.576.14.283.14.565 0 .848C21.73 16.894 17 20 12 20 7 20 2.27 16.894.104 12.424c-.14-.236-.14-.565 0-.848C2.27 7.106 7 4 12 4zm0 13c2.76 0 5-2.24 5-5s-2.24-5-5-5-5 2.24-5 5 2.24 5 5 5zm0-2a3 3 0 1 1 0-6 3 3 0 0 1 0 6z"/></symbol><symbol viewBox="0 0 24 24" id="search" xmlns="http://www.w3.org/2000/svg"><path fill-rule="evenodd" d="M17.188 15.067l6.211 6.211a1 1 0 0 1 0 1.414l-.707.707a1 1 0 0 1-1.414 0l-6.211-6.21A9.44 9.44 0 0 1 9.5 19 9.476 9.476 0 0 1 0 9.5C0 4.271 4.271 0 9.5 0S19 4.271 19 9.5c0 2.076-.673 4-1.812 5.567zM3 9.5C3 13.128 5.922 16 9.5 16S16 13.078 16 9.5 13.078 3 9.5 3 3 5.922 3 9.5z"/></symbol><symbol viewBox="0 0 24 24" id="settings" xmlns="http://www.w3.org/2000/svg"><path fill-rule="evenodd" d="M15.06 3.534a8.99 8.99 0 0 1 2.74 1.584l2.87-.677a1 1 0 0 1 1.095.473l1.256 2.176a1 1 0 0 1-.138 1.186l-2.021 2.143a9.055 9.055 0 0 1 .03 2.978l2.068 2.193a1 1 0 0 1 .139 1.186l-1.256 2.175a1 1 0 0 1-1.096.474l-2.808-.663a8.998 8.998 0 0 1-2.703 1.639l-.865 2.886a1 1 0 0 1-.958.713h-2.511a1 1 0 0 1-.958-.712l-.83-2.76a8.983 8.983 0 0 1-2.769-1.526l-2.934.695a1 1 0 0 1-1.097-.473L1.058 17.05a1 1 0 0 1 .138-1.186l1.977-2.099a9.044 9.044 0 0 1-.034-3.347L1.119 8.27A1 1 0 0 1 .98 7.086L2.237 4.91a1 1 0 0 1 1.096-.473l2.868.68a8.99 8.99 0 0 1 2.74-1.584l.848-2.82A1 1 0 0 1 10.746 0h2.512a1 1 0 0 1 .958.713l.845 2.82zM12 18a6 6 0 1 0 0-12 6 6 0 0 0 0 12zm0-2a4 4 0 1 1 0-8 4 4 0 0 1 0 8z"/></symbol><symbol viewBox="0 0 24 24" id="store" xmlns="http://www.w3.org/2000/svg"><path fill-rule="evenodd" d="M6 7l6-4 6 4h2v2h1v2h3v9h-5v-6H5v6H0v-9h3V9h1V7h2zm0 8h12v5H6v-5zm-6 6h24v1H0v-1z"/></symbol><symbol viewBox="0 0 24 24" id="success" xmlns="http://www.w3.org/2000/svg"><path d="M12 0c6.65 0 12 5.35 12 12s-5.35 12-12 12S0 18.65 0 12 5.35 0 12 0zm8 9l-2-2-7 7-4-4-2 2 6 6 9-9z"/></symbol><symbol viewBox="0 0 24 24" id="tag" xmlns="http://www.w3.org/2000/svg"><path fill-rule="evenodd" d="M9.934 23.64L.357 14.067a1.224 1.224 0 0 1 0-1.728L12.327.358c.23-.23.54-.358.864-.358h9.595C23.455 0 24 .544 24 1.213v9.595c0 .325-.13.635-.36.864l-11.98 11.97a1.222 1.222 0 0 1-1.726 0zm8.79-16.1c1.316 0 2.45-1.132 2.45-2.266 0-1.122-1.134-2.255-2.265-2.255-1.134 0-2.45.94-2.45 2.254 0 1.326 1.132 2.265 2.265 2.265z"/></symbol><symbol viewBox="0 0 24 24" id="target" xmlns="http://www.w3.org/2000/svg"><path class="bmcls-1" d="M11.92 7.45a4.62 4.62 0 1 0 4.62 4.62 4.62 4.62 0 0 0-4.62-4.62z"/><path class="bmcls-1" d="M24 11.05h-2.33a9.8 9.8 0 0 0-8.8-8.83V0H11v2.22a9.82 9.82 0 0 0-8.8 8.83H0V13h2.18A9.79 9.79 0 0 0 11 21.72V24h1.92v-2.29A9.81 9.81 0 0 0 21.68 13H24zm-12.08 9A8.12 8.12 0 1 1 20 12a8.12 8.12 0 0 1-8.08 8.08z"/></symbol><symbol viewBox="0 0 24 24" id="tools" xmlns="http://www.w3.org/2000/svg"><path d="M.66 20.167l7.388-7.384 3.18 3.177-7.383 7.382a2.258 2.258 0 0 1-3.186 0 2.24 2.24 0 0 1 0-3.175zM18.717 6.484l-3.92 3.915-1.586-1.59 3.918-3.915 1.66-3.213L22.053 0l1.565 1.566-1.684 3.256-3.215 1.662zm1.085 8.544c2.344.16 4.197 2.087 4.197 4.466 0 .698-.168 1.35-.447 1.936l-2.994-2.99a1.46 1.46 0 0 0-.537-.337 1.414 1.414 0 0 0-.52-.1 1.497 1.497 0 0 0-1.405 2.02c.08.19.182.38.345.535l2.987 2.988a4.402 4.402 0 0 1-1.927.454c-2.386 0-4.314-1.86-4.475-4.198l-.03-.308c0-.55.12-1.068.294-1.552L6.057 8.71A4.605 4.605 0 0 1 4.504 9l-.307-.028C1.86 8.81 0 6.884 0 4.495c0-.688.17-1.338.454-1.925l2.988 2.988c.154.162.344.263.543.338.16.066.335.1.52.1.38 0 .76-.145 1.055-.438.43-.425.534-1.047.335-1.58a1.377 1.377 0 0 0-.335-.536L2.57.446A4.503 4.503 0 0 1 4.504 0C6.886 0 8.81 1.852 8.972 4.195l.028.3c0 .55-.108 1.072-.292 1.56l9.236 9.236c.49-.18 1.01-.292 1.56-.292l.3.03z"/></symbol><symbol viewBox="0 0 24 24" id="user" xmlns="http://www.w3.org/2000/svg"><path d="M12 12c-3.36 0-6-2.64-6-6s2.64-6 6-6 6 2.64 6 6-2.64 6-6 6zm0 2c6 0 12 2 12 7v3H0v-3c0-5 6-7 12-7z"/></symbol><symbol viewBox="0 0 24 24" id="warning" xmlns="http://www.w3.org/2000/svg"><path d="M23.728 19.79L13.148 2.692c-.555-.924-1.756-.924-2.31 0L.257 19.79c-.648 1.06 0 2.54 1.154 2.54h21.16c1.156 0 1.85-1.48 1.156-2.54zm-11.736-1.156c-.785 0-1.386-.6-1.386-1.387 0-.785.6-1.386 1.386-1.386.786 0 1.387.602 1.387 1.387 0 .786-.602 1.387-1.388 1.387zm1.387-4.16c0 .278-.186.463-.463.463h-1.85c-.276 0-.46-.185-.46-.462V8.47c0-.28.184-.463.46-.463h1.85c.277 0 .462.184.462.462v6.005z"/></symbol></svg>